# xmcd
#
# Track frame offsets: 
#        150
#        25206
#        42684
#        55710
#        71398
#        89302
#        104038
#        119618
#        127229
#        140523
#        156873
#        174130
#        189199
#        202067
#        217711
#        231492
#        246664
#        267663
#        292455
#
# Disc length: 4221 seconds
#
# Revision: 0
# Processed by: cddbd v1.5.2PL0 Copyright (c) Steve Scherf et al.
# Submitted via: ExactAudioCopy v1.0b4
#
DISCID=33107b13
DTITLE=Eric Bibb and Jean-Jacques Milteau  - Lead Belly's Gold, Live A
DTITLE=t The Sunset... And More
DYEAR=2015
DGENRE=Blues
TTITLE0=Grey Goose (Live)
TTITLE1=When That Train Comes Along - Swing Low, Swing Chariot (Live)
TTITLE2=On A Monday (Live)
TTITLE3=The House Of The Rising Sun (Live)
TTITLE4=Midnight Special (Live)
TTITLE5=Bring A Little Water, Sylvie (Live)
TTITLE6=Where Did You Sleep Last Night (Live)
TTITLE7=When I Get To Dallas (Live)
TTITLE8=Pick A Bale Of Cotton (Live)
TTITLE9=Good Night, Irene (Live)
TTITLE10=Rock Island Line (Live)
TTITLE11=Bourgeois Blues (Studio)
TTITLE12=Chauffeur Blues (Studio)
TTITLE13=Stewball (Studio)
TTITLE14=Titanic (Studio)
TTITLE15=Swimmin' In A River Of Songs (Studio)
TTITLE16=Don't Ever Let Nobody Drag Your Spirit Down (Live) (Bonus Tra
TTITLE16=ck)
TTITLE17=Goin' Down Slow (Live) (Bonus Track)
TTITLE18=I heard The Angels Singing (Live) (Bonus Track)
EXTD=
EXTT0=
EXTT1=
EXTT2=
EXTT3=
EXTT4=
EXTT5=
EXTT6=
EXTT7=
EXTT8=
EXTT9=
EXTT10=
EXTT11=
EXTT12=
EXTT13=
EXTT14=
EXTT15=
EXTT16=
EXTT17=
EXTT18=
PLAYORDER=
